<svg width="343" height="239" viewBox="0 0 343 239" fill="none" xmlns="http://www.w3.org/2000/svg">
<path d="M137.456 20.8676C245.036 -18.5783 303.308 16.3851 318.997 38.7976L324.6 27.5913C322.732 31.3267 321.91 40.8147 333.565 48.8832C345.219 56.9516 338.421 71.6691 333.565 78.0193C334.792 121.388 322.062 150.69 304.77 169.91L309.472 218.097L297.145 222.019L275.318 192.323C262.265 198.874 249.363 201.838 239.433 202.408L231.588 236.027H223.744L204.693 211.373C193.039 211.373 143.806 198.673 120.647 192.323L62.3743 218.097L53.4093 211.373L78.063 165.428C53.0357 133.677 29.8762 60.3136 137.456 20.8676Z" fill="#FAB4D9"/>
<path d="M318.997 38.7976C303.308 16.3851 245.036 -18.5783 137.456 20.8676C29.8762 60.3136 53.0357 133.677 78.063 165.428L53.4093 211.373L62.3743 218.097L120.647 192.323C143.806 198.673 193.039 211.373 204.693 211.373L223.744 236.027H231.588L239.433 202.408C249.363 201.838 262.265 198.874 275.318 192.323M318.997 38.7976L324.6 27.5913C322.732 31.3267 321.91 40.8147 333.565 48.8832C345.219 56.9516 338.421 71.6691 333.565 78.0193C334.792 121.388 322.062 150.69 304.77 169.91M318.997 38.7976C312.46 42.1595 297.705 48.8832 290.981 48.8832C284.258 48.8832 285.938 60.4629 287.619 66.2528M304.77 169.91L309.472 218.097L297.145 222.019L275.318 192.323M304.77 169.91C295.75 179.936 285.488 187.219 275.318 192.323" stroke="#7F5F70" stroke-width="5"/>
<path d="M191.246 76.3384C195.168 65.8793 202.116 43.168 198.53 35.996C194.944 28.824 207.868 38.2372 214.779 43.8403C223.744 44.2139 241.114 48.0988 238.872 60.6497" stroke="#7F5F70" stroke-width="5"/>
<ellipse cx="247.897" cy="114.679" rx="9.29259" ry="5.60311" transform="rotate(73.0582 247.897 114.679)" fill="#2E1D05"/>
<ellipse cx="293.951" cy="110.288" rx="9.68291" ry="5.60311" transform="rotate(85.74 293.951 110.288)" fill="#2E1D05"/>
<ellipse cx="272.491" cy="145.257" rx="35.8599" ry="17.3697" fill="#F594C1"/>
<ellipse cx="262.966" cy="145.257" rx="4.48249" ry="7.84436" fill="#2E1D05"/>
<ellipse cx="284.258" cy="145.257" rx="4.48249" ry="7.84436" fill="#2E1D05"/>
<path d="M57.5412 104.194L30.0453 94.2776C29.4442 88.7183 30.9468 78.8618 41.7649 83.9103C52.5829 88.9587 36.9568 97.1324 27.7915 100.588C22.2322 101.64 9.49085 100.859 3 89.3193" stroke="#7F5F70" stroke-width="5" stroke-linecap="round"/>
</svg>
