<svg iid="ham" viewBox="0 0 326 706" fill="none" xmlns="http://www.w3.org/2000/svg">
<path d="M324 58C324 81.196 251.022 84 161 84C70.9776 84 0 81.196 0 58C0 34.804 70.9776 0 161 0C251.022 0 324 34.804 324 58Z" fill="#E67B7B"/>
<path d="M130 420C18 349.6 -0.666654 157.333 4.00001 70H322C338 302 266 400 228 420H130Z" fill="#9C4900"/>
<ellipse cx="168" cy="28.5" rx="36" ry="13.5" fill="#EBE9E9"/>
<path d="M210 420H149V676H210V420Z" fill="#EBE9E9"/>
<ellipse cx="152" cy="673.5" rx="35" ry="32.5" fill="#EBE9E9"/>
<ellipse cx="204" cy="674.5" rx="31" ry="31.5" fill="#EBE9E9"/>
<path d="M6 72L228 418M12 189C16 200.2 106.333 346.333 151 418M108 72L279 356M228 72L318 224M297 72L325 118M131 418C140.6 418 241.667 363.333 291 336M83 375L313 256M39 296L325 155M12 208L318 72M6 142L138 72" stroke="#341B05"/>
</svg>
