<svg width="583" height="344" viewBox="0 0 583 344" fill="none" xmlns="http://www.w3.org/2000/svg">
<circle cx="148.5" cy="140.5" r="48.5" fill="#BA8E7A"/>
<circle cx="235.734" cy="203.406" r="23.5" fill="#BA8E7A"/>
<circle cx="343.5" cy="164.5" r="53.5" fill="#BA8E7A"/>
<circle cx="126.547" cy="260.094" r="40.5" fill="#BA8E7A"/>
<circle cx="31.7814" cy="158" r="22" fill="#BA8E7A"/>
<circle cx="482.406" cy="131.923" r="16.5" fill="#BA8E7A"/>
<ellipse cx="416.953" cy="88.5" rx="11.5" ry="12.5" fill="#BA8E7A"/>
<ellipse cx="247.5" cy="88.5" rx="11.5" ry="12.5" fill="#BA8E7A"/>
<circle cx="472.5" cy="253.5" r="26.5" fill="#D7A184"/>
<circle cx="43" cy="60" r="43" fill="#D7A184"/>
<circle cx="287.5" cy="288.5" r="28.5" fill="#D7A184"/>
<circle cx="86.5" cy="205.5" r="48.5" fill="#D7A184"/>
<ellipse cx="320.406" cy="93.5" rx="39.5" ry="38.5" fill="#D7A184"/>
<ellipse cx="370" cy="216.5" rx="10" ry="10.5" fill="#D7A184"/>
<circle cx="532.672" cy="93" r="50" fill="#D4C2AC"/>
<ellipse cx="256" cy="183.5" rx="44" ry="43.5" fill="#D4C2AC"/>
<circle cx="395.719" cy="299.75" r="44" fill="#D4C2AC"/>
<circle cx="24" cy="156" r="24" fill="#D4C2AC"/>
<circle cx="131.094" cy="71" r="17" fill="#D4C2AC"/>
<circle cx="219.5" cy="52.5" r="52.5" fill="#D4C2AC"/>
<circle cx="559.344" cy="202.5" r="17.5" fill="#66796B"/>
<circle cx="201" cy="123" r="18" fill="#66796B"/>
<circle cx="340.5" cy="80.5" r="20.5" fill="#66796B"/>
<circle cx="335" cy="265" r="35" fill="#66796B"/>
<circle cx="73" cy="113" r="27" fill="#66796B"/>
<ellipse cx="159" cy="277" rx="24" ry="23" fill="#66796B"/>
</svg>
