<svg width="1570" height="1872" viewBox="0 0 1570 1872" fill="none" xmlns="http://www.w3.org/2000/svg">
<path d="M1380 738.883H1460C1482.67 732.217 1531.2 713.283 1544 690.883C1556.8 668.483 1549.33 630.883 1544 614.883L1564 530.883C1556 494.883 1508 422.083 1380 418.883C1370.67 346.883 1326.4 191.683 1224 146.883C1136 121.55 939.2 103.683 856 234.883C822.667 352.217 759.2 654.883 772 926.883C770.667 1022.88 714.4 1186.08 500 1070.88C386.667 1022.88 140.8 926.883 64 926.883C130.667 1064.22 320.8 1356.48 548 1426.88C620 1473.55 778.4 1565.28 836 1558.88C824 1652.22 819.2 1840.48 896 1846.88C904.529 1847.59 911.724 1848.18 917.739 1848.66C917.137 1848.06 916.556 1847.47 916 1846.88C938.52 1849.25 965.886 1852.47 917.739 1848.66C932.283 1863.09 959.391 1880.68 964 1846.88C974.643 1846.31 987.549 1844.1 998 1839.48C1017.6 1830.8 1028.56 1813.62 999.764 1782.74C999.188 1783.83 998.597 1784.88 998 1785.88C978.333 1763.88 950.8 1732.08 998 1780.88C998.604 1781.51 999.192 1782.13 999.764 1782.74C1006.75 1769.5 1011.49 1750.27 998 1740.56C991.499 1735.87 980.762 1733.4 964 1734.88V1573.88H998V1740.56C1011.49 1750.27 1006.75 1769.5 999.764 1782.74C1028.56 1813.62 1017.6 1830.8 998 1839.48L1034 1851.88C1098.8 1867.88 1085 1807.88 1070 1775.88C1112.91 1749.48 1083.88 1730.88 1064 1724.88V1573.88C1149.67 1580.55 1330.8 1534.28 1370 1295.88L1380 738.883Z" fill="#BFF7C2"/>
<path d="M998 1740.56C991.499 1735.87 980.762 1733.4 964 1734.88V1573.88H998V1740.56ZM998 1740.56C1011.49 1750.27 1006.75 1769.5 999.764 1782.74M998 1839.48C987.549 1844.1 974.643 1846.31 964 1846.88C959.391 1880.68 932.283 1863.09 917.739 1848.66M998 1839.48L1034 1851.88C1098.8 1867.88 1085 1807.88 1070 1775.88C1112.91 1749.48 1083.88 1730.88 1064 1724.88V1573.88C1149.67 1580.55 1330.8 1534.28 1370 1295.88L1380 738.883H1460C1482.67 732.217 1531.2 713.283 1544 690.883C1556.8 668.483 1549.33 630.883 1544 614.883L1564 530.883C1556 494.883 1508 422.083 1380 418.883C1370.67 346.883 1326.4 191.683 1224 146.883C1136 121.55 939.2 103.683 856 234.883C822.667 352.217 759.2 654.883 772 926.883C770.667 1022.88 714.4 1186.08 500 1070.88C386.667 1022.88 140.8 926.883 64 926.883C130.667 1064.22 320.8 1356.48 548 1426.88C620 1473.55 778.4 1565.28 836 1558.88C824 1652.22 819.2 1840.48 896 1846.88C904.529 1847.59 911.724 1848.18 917.739 1848.66M998 1839.48C1017.6 1830.8 1028.56 1813.62 999.764 1782.74M917.739 1848.66C917.137 1848.06 916.556 1847.47 916 1846.88C938.52 1849.25 965.886 1852.47 917.739 1848.66ZM999.764 1782.74C999.188 1783.83 998.597 1784.88 998 1785.88C978.333 1763.88 950.8 1732.08 998 1780.88C998.604 1781.51 999.192 1782.13 999.764 1782.74Z" stroke="#629459" stroke-width="11"/>
<path d="M1544 634C1495.33 646 1396.4 654.8 1390 594" stroke="black" stroke-width="8"/>
<path d="M984 150L1020 84L1064 136L1112 0L1156 136C1167.33 120.667 1191.2 91.6 1196 98C1200.8 104.4 1211.33 135.333 1216 150H984Z" fill="#629459"/>
<path d="M388 1034L370 936L314 1008L388 1034Z" fill="#629459"/>
<path d="M242 978L224 882L178 960L242 978Z" fill="#629459"/>
<path d="M106 936L54 854L72 936H106Z" fill="#629459"/>
<path d="M106 996L40 1090L144 1078L106 996Z" fill="#629459"/>
<path d="M188 1142L158 1276L262 1226L188 1142Z" fill="#629459"/>
<path d="M144 1078L84 1180L188 1142L144 1078Z" fill="#629459"/>
<path d="M72 936L0 1008L106 996C106 981.6 83.3333 950 72 936Z" fill="#629459"/>
<path d="M178 960L144 872L106 936L178 960Z" fill="#629459"/>
<path d="M314 1008V908L242 978L314 1008Z" fill="#629459"/>
<path d="M1284 317C1289.21 316.469 1256.97 314.067 1264 312.8M1311.5 288.5C1310.08 295.889 1281.24 309.692 1264 312.8M1267 368C1271.76 367.173 1274.57 377.431 1280.5 375.824M1323.5 346.5C1329.51 356.725 1298.47 370.953 1280.5 375.824M1264 312.8C1257.5 329.582 1251.7 365.682 1280.5 375.824" stroke="black" stroke-width="6"/>
<path d="M1281.42 311.762C1282.09 311.599 1282.8 311.788 1283.28 312.282C1293.58 322.812 1310.14 347.35 1300.36 368.258C1300.14 368.733 1299.72 369.095 1299.23 369.265L1283.24 374.745C1282.77 374.909 1282.23 374.881 1281.77 374.67C1260.13 364.705 1265.95 351.451 1261.5 347C1258.03 343.534 1262.63 325.89 1265.66 316.548C1265.87 315.893 1266.41 315.401 1267.08 315.239L1281.42 311.762Z" fill="black" stroke="black" stroke-width="6"/>
<path d="M1161 324C1180.67 334.333 1197 356 1168 386C1147 377 1140 337 1161 324Z" fill="black"/>
<path d="M1161 324C1180.67 334.333 1197 356 1168 386M1161 324C1140 337 1147 377 1168 386M1161 324C1127 317 1094 335 1078 324M1168 386C1147.67 388 1103.6 387.4 1094 377" stroke="black" stroke-width="6"/>
<path d="M1375.81 830.605C1375.79 829.996 1375.51 829.437 1375.02 829.074C1299.63 773.092 1124.56 738.901 1020.89 1046.32C1020.82 1046.53 1020.78 1046.75 1020.78 1046.97V1051.34C1020.78 1051.54 1020.76 1051.73 1020.7 1051.92C969.415 1219.64 927.136 1553.69 1167.62 1550.64C1167.72 1550.64 1167.83 1550.65 1167.94 1550.66C1227.32 1559.23 1354.15 1514.85 1387.76 1268.81C1387.78 1268.7 1387.78 1268.59 1387.78 1268.48L1375.81 830.605Z" fill="#E5E7C1" stroke="#C5C69C" stroke-width="6"/>
<path d="M939.27 974.691C938.55 975.433 938.514 976.6 939.187 977.385L1045.27 1101.15C1045.72 1101.68 1045.87 1102.4 1045.66 1103.06C1038 1127.64 1037.23 1164.64 1093.16 1124.61C1093.67 1124.24 1094.35 1124.11 1094.95 1124.29C1116.16 1130.66 1150.49 1132.53 1126.78 1091.34C1126.34 1090.56 1126.41 1089.56 1127.01 1088.9C1146.61 1067.34 1166.18 1026.38 1095 1026C1094.39 1026 1093.78 1025.72 1093.4 1025.24L1003.42 911.786C1002.67 910.839 1001.25 910.769 1000.41 911.636L939.27 974.691Z" fill="#BFF7C2" stroke="#8AC28D" stroke-width="6"/>
<ellipse cx="1514.5" cy="569.5" rx="4.5" ry="7.5" fill="#8AC28D"/>
<ellipse cx="1514.5" cy="569.5" rx="4.5" ry="7.5" fill="#8AC28D"/>
<ellipse cx="1514.5" cy="569.5" rx="4.5" ry="7.5" fill="#8AC28D"/>
<ellipse cx="1455.5" cy="569.5" rx="4.5" ry="7.5" fill="#8AC28D"/>
<ellipse cx="1455.5" cy="569.5" rx="4.5" ry="7.5" fill="#8AC28D"/>
<ellipse cx="1455.5" cy="569.5" rx="4.5" ry="7.5" fill="#8AC28D"/>
<path d="M1356 1026C1314.67 1048.67 1212 1080.4 1132 1026M1356 1278C1310.67 1308.67 1202.4 1351.6 1132 1278M1356 1182C1328 1206 1244 1239.6 1132 1182" stroke="#8AC28D" stroke-width="6"/>
</svg>
